<svg xmlns="http://www.w3.org/2000/svg" xmlns:xlink="http://www.w3.org/1999/xlink" viewBox="0 0 14 20"><defs><style>.cls-1{fill:none;}.cls-2{clip-path:url(#clip-path);}.cls-3{fill:#911c5e;}</style><clipPath id="clip-path" transform="translate(-5 -2)"><rect class="cls-1" width="24" height="24"/></clipPath></defs><title>ic_com_pin</title><g id="Layer_2" data-name="Layer 2"><g id="Layer_1-2" data-name="Layer 1"><g class="cls-2"><path class="cls-3" d="M12,2A7,7,0,0,0,5,9c0,5.25,7,13,7,13s7-7.75,7-13A7,7,0,0,0,12,2Zm2,2.66a1.49,1.49,0,1,1-1.49,1.49A1.49,1.49,0,0,1,14,4.66Zm-4,0A1.49,1.49,0,1,1,8.55,6.15,1.49,1.49,0,0,1,10,4.66Zm3.48,7h-7V10.38c0-1.16,2.32-1.74,3.48-1.74s3.48.58,3.48,1.74Zm1,0V10.38a2.1,2.1,0,0,0-1-1.72l.48,0c1.16,0,3.48.58,3.48,1.74v1.24Z" transform="translate(-5 -2)"/></g></g></g></svg>