<svg xmlns="http://www.w3.org/2000/svg" viewBox="0 0 526.89 526.89"><defs><style>.cls-1{fill:#57103a;}.cls-2{fill:#6a1147;}.cls-3{fill:#790c4d;}.cls-4{fill:#7c1453;}.cls-5{fill:#8d0d5a;}.cls-6{fill:#91155e;}.cls-7{fill:#660b41;}</style></defs><title>icon</title><g id="Layer_2" data-name="Layer 2"><g id="Layer_2-2" data-name="Layer 2"><path class="cls-1" d="M263.44,52.46A211,211,0,0,1,412.63,412.63,211,211,0,1,1,114.26,114.26,209.6,209.6,0,0,1,263.44,52.46m0-52.46C117.95,0,0,117.95,0,263.44S117.95,526.89,263.44,526.89,526.89,408.94,526.89,263.44,408.94,0,263.44,0Z"/><polygon class="cls-1" points="118.84 118.07 406.6 118.07 262 259.81 118.84 118.07"/><polygon class="cls-2" points="329.5 326.63 262 259.81 118.84 402.97 253.82 402.97 329.5 326.63"/><polygon class="cls-3" points="406.41 402.97 329.47 326.85 253.82 402.97 406.41 402.97"/><polygon class="cls-4" points="406.41 313.72 371.36 283.43 329.5 326.63 406.41 402.97 406.41 313.72"/><polygon class="cls-5" points="406.41 313.72 406.41 251.39 371.36 283.43 406.41 313.72"/><polygon class="cls-6" points="406.41 251.39 340.69 251.39 371.36 283.43 406.41 251.39"/><polygon class="cls-7" points="118.84 402.97 118.84 118.07 262 259.81 118.84 402.97"/></g></g></svg>