<svg version="1" xmlns="http://www.w3.org/2000/svg" width="346.667" height="346.667" viewBox="0 0 260.000000 260.000000"><path d="M108.5 1.6C60.6 9.9 22 43.1 6.5 89.2 2 102.7.2 114.3.2 130.5c-.1 47 24.3 88.7 66 112.8 12.7 7.3 30.5 13.5 44.3 15.5 9.9 1.4 36.5.7 45.5-1.2 24.3-5.2 48.6-18.1 64.9-34.5 12.6-12.6 23.9-29.3 29.1-42.9 1.2-3.1 2.6-6.6 3.1-7.7 1.5-3.6 3.8-12.8 5.4-21.5 2-11.8 1.4-37.3-1.4-49-10.3-44.5-41.7-79.8-84.1-94.8-4.7-1.6-11-3.5-14-4.1-3-.6-6.6-1.4-8-1.7-5.5-1.3-34.6-1.2-42.5.2zm35 25.4c51 6.3 90.4 51.3 90.3 102.9-.1 42.5-26 80.8-65.1 96.5-13.3 5.3-21.1 6.8-36.2 7-16.7.1-22.7-.6-34.4-4.5-19.8-6.6-37.1-18.7-49.9-35.1C43 187.2 35 173.7 35 171.6c0-.7-.4-1.6-.9-2.1-.5-.6-1.8-3.9-2.9-7.5-10.2-31.9-4.6-66.7 15.2-93.4 22.8-30.9 58.9-46.3 97.1-41.6z"/><path d="M58.9 58.4c-.1.1-.2 31.7-.3 70.3l-.1 70.3h142.2l.1-37.5V124h-33.2l6.9 7.2c3.9 4 7.4 7.5 7.8 7.9.5.3-3.8 5.4-9.5 11.3l-10.3 10.7-16.4-16.5-16.5-16.5 13-12.6c40.1-39.3 57.3-56.5 56.6-56.8-.6-.4-139.9-.6-140.3-.3z"/></svg>